<svg id="Layer_1" data-name="Layer 1" xmlns="http://www.w3.org/2000/svg" viewBox="0 0 20 19.99"><defs><style>.cls-1{fill:#2e8bc0;}</style></defs><title>F</title><path class="cls-1" d="M0,20l.21-.61,1.53-4.54a.15.15,0,0,0,0-.13A9.76,9.76,0,0,1,.5,11.41,10,10,0,0,1,.39,9,9.44,9.44,0,0,1,2.14,4.15,9.71,9.71,0,0,1,8,.23,9.39,9.39,0,0,1,10,0a9.59,9.59,0,0,1,5.51,1.57,9.62,9.62,0,0,1,4.15,5.64A9.74,9.74,0,0,1,19,14.13a9.83,9.83,0,0,1-7.17,5.23,9.56,9.56,0,0,1-2.39.09,9.88,9.88,0,0,1-3.9-1.14.16.16,0,0,0-.12,0L.57,19.82.09,20Zm2.47-2.41h.06l3-1a.17.17,0,0,1,.17,0,8.22,8.22,0,0,0,3.55,1.25,8,8,0,0,0,2.58-.11,8.08,8.08,0,0,0,4.38-2.45,7.86,7.86,0,0,0,2.06-7.1,8,8,0,0,0-4.41-5.8,8.05,8.05,0,0,0-4-.87,7.92,7.92,0,0,0-1.54.2A8.21,8.21,0,0,0,4,4.36,8,8,0,0,0,2,8.83a7.88,7.88,0,0,0,.09,2.47,8,8,0,0,0,1.39,3.19.12.12,0,0,1,0,.13l-.75,2.22C2.64,17.09,2.55,17.33,2.47,17.58Z"/><path class="cls-1" d="M12.88,14.34a3.57,3.57,0,0,1-1-.18,13.38,13.38,0,0,1-2-.78A8,8,0,0,1,8,12,13.19,13.19,0,0,1,6.4,10.1a6.52,6.52,0,0,1-.79-1.41,3,3,0,0,1-.06-2,2.57,2.57,0,0,1,.72-1.08,1.08,1.08,0,0,1,.59-.25c.15,0,.3,0,.46-.06a.44.44,0,0,1,.43.21,3,3,0,0,1,.15.31c.25.58.49,1.17.74,1.76a.44.44,0,0,1,0,.39A3.33,3.33,0,0,1,8,8.77a.31.31,0,0,0,0,.44,6.46,6.46,0,0,0,2.6,2.53l.75.34a.32.32,0,0,0,.44-.1c.26-.31.52-.63.77-1a.33.33,0,0,1,.4-.14c.24.09.47.19.7.3l1.34.64a.38.38,0,0,1,.24.37,2.47,2.47,0,0,1-.22,1,1.31,1.31,0,0,1-.27.36,2.63,2.63,0,0,1-1.18.67C13.28,14.29,13,14.31,12.88,14.34Z"/></svg>