<svg id="Layer_1" data-name="Layer 1" xmlns="http://www.w3.org/2000/svg" viewBox="0 0 20 14.05"><defs><style>.cls-1{fill:#2e8bc0;}</style></defs><title>F</title><path class="cls-1" d="M18.44,14.05H1.56A3.5,3.5,0,0,1,1,13.88a1.75,1.75,0,0,1-1-1.67V1.83A1.75,1.75,0,0,1,1.77,0H18.23a1.59,1.59,0,0,1,1.4.72,4.87,4.87,0,0,1,.37.84V12.49s0,0,0,.07a1.73,1.73,0,0,1-.65,1.12A2.07,2.07,0,0,1,18.44,14.05ZM2,1.18s0,.06.06.07c2.21,2.2,4.42,4.41,6.65,6.6a1.8,1.8,0,0,0,.66.43,1.7,1.7,0,0,0,1.91-.46l6.55-6.51L18,1.18Zm10.9,6.66c-.28.29-.54.56-.81.82a2.85,2.85,0,0,1-1.95.9,2.89,2.89,0,0,1-2.29-.89l-.81-.83-4.93,5H17.86ZM1.18,12.05,6.11,7,1.18,2Zm17.63,0V2L13.87,7Z"/></svg>