<svg id="Layer_1" data-name="Layer 1" xmlns="http://www.w3.org/2000/svg" viewBox="0 0 40 40"><defs><style>.cls-1{fill:#2e8bc0;}.cls-2{fill:#fff;}</style></defs><title>IC</title><circle class="cls-1" cx="20" cy="20" r="20"/><path d="M19.56,33.57c-.56-.07-1.13-.12-1.69-.21a11,11,0,0,1-3.57-1.28A11.67,11.67,0,0,1,9.75,16.45a11.52,11.52,0,0,1,8.84-6c.22,0,.27-.11.26-.31s0-.61,0-.93h2.3c0,.32,0,.64,0,1s.06.26.24.28a11.21,11.21,0,0,1,4.46,1.48.21.21,0,0,0,.3-.05l1.41-1.41c.07-.07.11-.16.17-.23l1.63,1.66-1.51,1.46c.3.31.56.57.8.84a11.19,11.19,0,0,1,2.77,5.61,11.42,11.42,0,0,1-1.75,8.64,11.2,11.2,0,0,1-6.95,4.82c-.64.15-1.3.2-2,.29l-.32,0ZM20,12.63A9.31,9.31,0,1,0,29.3,22,9.24,9.24,0,0,0,20,12.63Z"/><path d="M16.54,5.67h6.92V8H16.54Z"/><path class="cls-2" d="M20,12.63a9.31,9.31,0,1,1-9.3,9.3A9.24,9.24,0,0,1,20,12.63Zm-6.2,3.06,0,0,.17.24,3.7,5.15a.48.48,0,0,1,.1.42,2.28,2.28,0,0,0,.58,2,2.3,2.3,0,0,0,2.84.45,2.34,2.34,0,0,0,1.09-2.62,2.32,2.32,0,0,0-2.56-1.67.64.64,0,0,1-.55-.13c-.59-.44-1.19-.87-1.79-1.29Z"/><path d="M13.79,15.69l3.54,2.55c.6.42,1.2.85,1.79,1.29a.64.64,0,0,0,.55.13,2.32,2.32,0,0,1,2.56,1.67A2.34,2.34,0,0,1,21.14,24a2.3,2.3,0,0,1-2.84-.45,2.28,2.28,0,0,1-.58-2,.48.48,0,0,0-.1-.42L13.92,16l-.17-.24Z"/></svg>