<svg id="Layer_1" data-name="Layer 1" xmlns="http://www.w3.org/2000/svg" viewBox="0 0 40 40"><defs><style>.cls-1{fill:#2e8bc0;}.cls-2{fill:#fff;}</style></defs><title>IC</title><circle class="cls-1" cx="20" cy="20" r="20"/><path d="M9.82,31V6.69h18V9.83h2.34v18a.63.63,0,0,1-.21.49L25.23,33.1a1.9,1.9,0,0,0-.19.21H12.94V31ZM28.6,11.4h-14V31.73h9.36V27H28.6ZM13,29.39V9.81H26.24V8.27H11.41V29.39ZM25.49,30.5l1.89-1.87H25.49Z"/><path class="cls-2" d="M28.6,11.4V27H23.91v4.69H14.55V11.4ZM27,13H16.11v1.54H27ZM16.11,19.23v1.54H27V19.23Zm0-1.59H27V16.11H16.11Zm0,4.72v1.53H27V22.36Zm0,4.67h5.43V25.5H16.11Z"/><path class="cls-2" d="M13,29.39H11.41V8.27H26.24V9.81H13Z"/><path class="cls-2" d="M25.49,30.5V28.63h1.89Z"/><path d="M27,13v1.54H16.11V13Z"/><path d="M16.11,19.23H27v1.54H16.11Z"/><path d="M16.11,17.64V16.11H27v1.53Z"/><path d="M16.11,22.36H27v1.53H16.11Z"/><path d="M16.11,27V25.5h5.43V27Z"/></svg>