<svg id="Layer_1" data-name="Layer 1" xmlns="http://www.w3.org/2000/svg" viewBox="0 0 40 40"><defs><style>.cls-1{fill:#a9e250;}</style></defs><title>IC</title><rect class="cls-1" width="40" height="40" rx="20"/><path d="M9.56,30.44c.07-.23.15-.45.22-.66.56-1.64,1.11-3.29,1.67-4.93a.19.19,0,0,0,0-.13,10.52,10.52,0,0,1-1.33-3.59,10.58,10.58,0,0,1,1.78-7.87A10.53,10.53,0,0,1,18.27,9a10.26,10.26,0,0,1,2.14-.25,10.65,10.65,0,0,1,10.47,7.82,9.65,9.65,0,0,1,.36,2.56,10.33,10.33,0,0,1-1.13,4.94,10.55,10.55,0,0,1-4.56,4.6,10.44,10.44,0,0,1-3.22,1.07,10.87,10.87,0,0,1-6.82-1.14.19.19,0,0,0-.13,0l-5.21,1.65-.52.17Zm2.67-2.61.07,0,3.26-1a.19.19,0,0,1,.19,0,8.87,8.87,0,0,0,3.84,1.36,8.92,8.92,0,0,0,7.55-2.78,8.52,8.52,0,0,0,2.24-7.7,8.92,8.92,0,0,0-9.1-7.22,7.87,7.87,0,0,0-1.67.21,8.82,8.82,0,0,0-4.75,2.83A8.83,8.83,0,0,0,11.8,21a8.78,8.78,0,0,0,1.5,3.46.12.12,0,0,1,0,.14c-.27.8-.54,1.61-.82,2.41C12.41,27.29,12.33,27.55,12.23,27.83Z"/><path d="M23.53,24.31a3.71,3.71,0,0,1-1.08-.2,13.19,13.19,0,0,1-2.19-.84,8.37,8.37,0,0,1-2-1.46,12.71,12.71,0,0,1-1.77-2.1,7,7,0,0,1-.86-1.53A3.14,3.14,0,0,1,15.57,16a3,3,0,0,1,.79-1.18,1.28,1.28,0,0,1,.63-.27l.5-.06a.47.47,0,0,1,.47.23c.06.11.11.22.16.33l.81,1.92a.51.51,0,0,1,0,.42,3.93,3.93,0,0,1-.7.92.35.35,0,0,0-.06.48A7,7,0,0,0,21,21.49c.26.13.54.25.81.37a.35.35,0,0,0,.48-.11l.84-1a.32.32,0,0,1,.42-.15,7.19,7.19,0,0,1,.76.32l1.46.7A.38.38,0,0,1,26,22a2.69,2.69,0,0,1-.23,1.08,1.42,1.42,0,0,1-.29.39,2.82,2.82,0,0,1-1.29.73C24,24.25,23.7,24.28,23.53,24.31Z"/></svg>