<svg id="Layer_1" data-name="Layer 1" xmlns="http://www.w3.org/2000/svg" viewBox="0 0 20 20.01"><defs><style>.cls-1{fill:#2e8bc0;}</style></defs><title>F</title><path class="cls-1" d="M0,9.56c0-.2,0-.4.06-.59a9.82,9.82,0,0,1,2.8-6A9.72,9.72,0,0,1,8.32.15a10,10,0,0,1,3.86,19.61A9.43,9.43,0,0,1,10.5,20l-.15,0H9.61l-.1,0c-.47,0-.94-.08-1.4-.17a9.8,9.8,0,0,1-6.26-4A9.65,9.65,0,0,1,.06,11L0,10.45ZM19,10a9,9,0,1,0-9,9A9,9,0,0,0,19,10Z"/><path class="cls-1" d="M8.34,10H7.12V7.83h1.1c.1,0,.12,0,.12-.13,0-.44,0-.88,0-1.32a3.13,3.13,0,0,1,.13-.91,2.2,2.2,0,0,1,2-1.63,14.6,14.6,0,0,1,1.62,0h.78V5.92H11.5a.51.51,0,0,0-.58.54c0,.42,0,.85,0,1.27,0,.09.06.08.11.08h1.86L12.66,10H10.92v6.2H8.34Z"/></svg>