<svg id="Layer_1" data-name="Layer 1" xmlns="http://www.w3.org/2000/svg" viewBox="0 0 139.21 40"><defs><style>.cls-1{fill:#2e8bc0;}.cls-2{fill:#fff;}</style></defs><title>IC</title><path class="cls-1" d="M12.45,14.1H22a1.63,1.63,0,0,1,1.61,2.22,1.57,1.57,0,0,1-1.5,1.06H12.41a1.51,1.51,0,0,1-1.15-.53l-3-3.27-.13-.14c-.12-.12-.29-.19-.4,0a.43.43,0,0,0,0,.4c.41.49.85,1,1.29,1.43l1.82,2a2,2,0,0,0,1.56.69c0,.12,0,.23,0,.34V22c0,.46.1.57.55.6l5.11.39A2.2,2.2,0,0,1,20,24.66q.87,3.81,1.73,7.63.57,2.46,1.1,4.94a5,5,0,0,1,.06,1.17A1.24,1.24,0,0,1,22,39.59a1.4,1.4,0,0,1-1.55-.33,3.39,3.39,0,0,1-.84-1.43c-.91-2.66-1.81-5.32-2.72-8-.28-.81-.56-1.62-.82-2.44a.36.36,0,0,0-.37-.29L8,26.42l-1.15-.1a2.07,2.07,0,0,1-1.9-2.09c-.11-3.34-.23-6.68-.33-10,0-.88-.1-1.76-.06-2.64A3.68,3.68,0,0,1,8.06,8.14a4,4,0,0,1,4.16,2.64A5.29,5.29,0,0,1,12.44,12C12.47,12.7,12.45,13.37,12.45,14.1Z"/><path d="M8.07,30.35H3.78a1.49,1.49,0,0,1-1.67-1.46c-.46-3.54-.9-7.08-1.35-10.62L0,12.6a1.81,1.81,0,0,1,.15-1.23,1.5,1.5,0,0,1,1.61-.73A1.5,1.5,0,0,1,3,11.91c.27,2.11.54,4.23.8,6.34.38,2.95.75,5.89,1.12,8.84,0,.27.18.25.36.25h9.19a1.51,1.51,0,1,1,.09,3c-1.33,0-2.67,0-4,0h-.44v5.72h1.22a1.21,1.21,0,0,1,1,.41c.53.55,1.08,1.08,1.62,1.62A1,1,0,0,1,14,39.62a1,1,0,0,1-1.49-.08c-.43-.42-.85-.85-1.28-1.26a.72.72,0,0,0-.43-.18q-1.82,0-3.63,0a.58.58,0,0,0-.38.15c-.45.43-.88.88-1.33,1.31a1,1,0,1,1-1.41-1.43l1.69-1.7a1.16,1.16,0,0,1,.89-.36H8.07Z"/><path d="M29.9,21.81H15c-.36,0-.71,0-.87-.39a1.32,1.32,0,0,1,0-1.22c.08-.15.28-.23.44-.32a.47.47,0,0,1,.24,0H31c.62,0,.84.23.84.85V38.62c0,.64-.29.93-.92.93s-1-.26-1-.93V21.81Z"/><path class="cls-1" d="M10.05,7.73A3.87,3.87,0,1,1,14,3.9,3.87,3.87,0,0,1,10.05,7.73Z"/><path d="M22.47,19.31H16.76a.74.74,0,0,1-.19-1.47H27.41a.46.46,0,0,0,.52-.37c.94-2.8,1.91-5.6,2.87-8.4a2.79,2.79,0,0,1,.14-.37.73.73,0,0,1,1.39.39,1.34,1.34,0,0,1-.07.27l-3.18,9.3a.82.82,0,0,1-.93.65Z"/><circle cx="121.97" cy="22.76" r="17.24"/><path class="cls-1" d="M112.52,31.59c.07-.2.13-.4.2-.59l1.47-4.35a.16.16,0,0,0,0-.12A9.33,9.33,0,0,1,113,23.35a9.3,9.3,0,0,1,1.57-7,9.29,9.29,0,0,1,5.65-3.76,8.74,8.74,0,0,1,1.9-.23,9.43,9.43,0,0,1,9.26,6.92,8.7,8.7,0,0,1,.32,2.27,9.07,9.07,0,0,1-1,4.36,9.43,9.43,0,0,1-6.88,5,9.83,9.83,0,0,1-2.3.09,9.26,9.26,0,0,1-3.73-1.1.24.24,0,0,0-.12,0l-4.6,1.46-.47.15Z"/><path class="cls-2" d="M114.89,29.28l.06,0,2.88-.91a.17.17,0,0,1,.17,0,7.68,7.68,0,0,0,3.4,1.2,7.58,7.58,0,0,0,2.47-.1,7.76,7.76,0,0,0,4.21-2.36,7.56,7.56,0,0,0,2-6.81,7.68,7.68,0,0,0-4.23-5.56A7.79,7.79,0,0,0,122,13.9a8.32,8.32,0,0,0-1.49.19,7.88,7.88,0,0,0-4.2,2.5,7.64,7.64,0,0,0-1.9,4.29,7.27,7.27,0,0,0,.09,2.37,7.75,7.75,0,0,0,1.33,3.06.1.1,0,0,1,0,.12l-.72,2.14C115.05,28.8,115,29,114.89,29.28Z"/><path class="cls-1" d="M124.88,26.17a3.35,3.35,0,0,1-1-.18,13.24,13.24,0,0,1-1.93-.74A8,8,0,0,1,120.22,24a11.57,11.57,0,0,1-1.56-1.86,6.48,6.48,0,0,1-.76-1.36,2.81,2.81,0,0,1-.06-2,2.56,2.56,0,0,1,.7-1,1,1,0,0,1,.56-.24l.44-.05a.4.4,0,0,1,.41.2c.06.1.1.19.15.29l.71,1.7a.44.44,0,0,1,0,.37,3.28,3.28,0,0,1-.62.82.3.3,0,0,0-.05.42,6.32,6.32,0,0,0,2.5,2.42l.72.33a.32.32,0,0,0,.43-.1c.25-.3.49-.6.73-.91a.3.3,0,0,1,.38-.13c.23.08.45.18.67.28l1.29.62a.36.36,0,0,1,.23.35,2.4,2.4,0,0,1-.21,1,1.1,1.1,0,0,1-.26.34,2.42,2.42,0,0,1-1.14.65Z"/><circle cx="69.6" cy="22.67" r="17.24"/><path class="cls-1" d="M58.28,4.23a.81.81,0,0,1,.81-.42H73c.62,0,.8.19.8.8,0,5.12,0,10.23,0,15.34v.37c.37-.07.73-.17,1.08-.21a5.35,5.35,0,0,1,5.87,6.78,13,13,0,0,1-2.24,4.32c-.7.94-1.49,1.83-2.25,2.73a4.15,4.15,0,0,1-.49.44H75.4c-.16-.14-.33-.26-.47-.41A24.6,24.6,0,0,1,72,30.28a.38.38,0,0,0-.39-.2H68c-.54,0-.75-.21-.75-.74v-4H64.84v4c0,.57-.2.77-.78.77-1.66,0-3.32,0-5,0a.82.82,0,0,1-.81-.43ZM59.49,5V28.86h4.15v-4c0-.55.21-.76.75-.76h3.28c.54,0,.75.21.75.74v4h2.74c-.22-.54-.45-1.06-.63-1.59a5.38,5.38,0,0,1,1.9-6.22.56.56,0,0,0,.16-.4V5ZM75.58,32.91A24.46,24.46,0,0,0,78.52,29a9.71,9.71,0,0,0,1.08-2.47,4.18,4.18,0,1,0-8,0,10.17,10.17,0,0,0,1.23,2.73A24.85,24.85,0,0,0,75.58,32.91Z"/><path class="cls-2" d="M59.49,5h13.1V20.66a.56.56,0,0,1-.16.4,5.38,5.38,0,0,0-1.9,6.22c.18.53.41,1,.63,1.59H68.42v-4c0-.53-.21-.74-.75-.74H64.39c-.54,0-.75.21-.75.76v4H59.49Zm1.79,1.79v3.55h3.54V6.81Zm6,3.55h3.54V6.81H67.24Zm-2.42,2.43H61.28v3.54h3.54Zm6,3.55V12.79H67.24v3.55Zm-6,2.42H61.28V22.3h3.54Zm6,3.55V18.76H67.25v3.55Z"/><path class="cls-2" d="M75.58,32.91a24.85,24.85,0,0,1-2.8-3.64,10.17,10.17,0,0,1-1.23-2.73,4.18,4.18,0,1,1,8,0A9.71,9.71,0,0,1,78.52,29,24.46,24.46,0,0,1,75.58,32.91Zm1.78-7.48a1.79,1.79,0,1,0-1.8,1.78A1.8,1.8,0,0,0,77.36,25.43Z"/><path class="cls-1" d="M61.28,6.81h3.54v3.55H61.28Z"/><path class="cls-1" d="M67.24,10.36V6.81h3.54v3.55Z"/><path class="cls-1" d="M64.82,12.79v3.54H61.28V12.79Z"/><path class="cls-1" d="M70.78,16.34H67.24V12.79h3.54Z"/><path class="cls-1" d="M64.82,18.76V22.3H61.28V18.76Z"/><path class="cls-1" d="M70.78,22.31H67.25V18.76h3.53Z"/><path class="cls-1" d="M77.36,25.43a1.79,1.79,0,1,1-1.77-1.8A1.78,1.78,0,0,1,77.36,25.43Z"/><path d="M44,25.32a.84.84,0,0,1-.64-.36,1.39,1.39,0,0,1-.22-.4,1.78,1.78,0,0,1-.08-.53,1.59,1.59,0,0,1,.14-.66,1,1,0,0,1,.38-.44l1.48-1-1.51-1a1.09,1.09,0,0,1-.36-.45,1.7,1.7,0,0,1-.13-.64,1.72,1.72,0,0,1,.08-.52,1.36,1.36,0,0,1,.23-.41.84.84,0,0,1,.64-.35.92.92,0,0,1,.45.15l3,2.06a1.16,1.16,0,0,1,.45.48,1.45,1.45,0,0,1,.16.68,1.53,1.53,0,0,1-.18.74,1.12,1.12,0,0,1-.47.49l-3,2.09A.77.77,0,0,1,44,25.32Z"/><path d="M94.51,25.32a.81.81,0,0,1-.64-.36,1.18,1.18,0,0,1-.22-.4,1.78,1.78,0,0,1-.08-.53,1.45,1.45,0,0,1,.14-.66,1,1,0,0,1,.38-.44l1.48-1-1.51-1a1,1,0,0,1-.36-.45,1.53,1.53,0,0,1-.13-.64,1.72,1.72,0,0,1,.08-.52,1.18,1.18,0,0,1,.23-.41.82.82,0,0,1,.64-.35,1,1,0,0,1,.45.15l3,2.06a1.21,1.21,0,0,1,.44.48,1.45,1.45,0,0,1,.16.68,1.53,1.53,0,0,1-.18.74,1.07,1.07,0,0,1-.47.49l-3,2.09A.82.82,0,0,1,94.51,25.32Z"/></svg>