<svg id="Layer_1" data-name="Layer 1" xmlns="http://www.w3.org/2000/svg" viewBox="0 0 40 40"><defs><style>.cls-1{fill:#2e8bc0;}.cls-2{fill:#fff;}</style></defs><title>IC</title><circle class="cls-1" cx="20" cy="20" r="20"/><path d="M23.31,5.66a7.55,7.55,0,0,1,.79.19,3.44,3.44,0,0,1,2.35,3.22c0,.53,0,1.07,0,1.61a.65.65,0,0,1-.64.67.65.65,0,0,1-.66-.66V9.17A2.16,2.16,0,0,0,23.36,7a2.08,2.08,0,0,0-.43,0H12a2.17,2.17,0,0,0-2.2,1.79,2.42,2.42,0,0,0,0,.47v20a2.16,2.16,0,0,0,1.79,2.2,2.52,2.52,0,0,0,.48,0H22.93a2.16,2.16,0,0,0,2.19-1.83,2.69,2.69,0,0,0,0-.4V26.82a.65.65,0,0,1,.86-.64.61.61,0,0,1,.44.58c0,.94,0,1.9,0,2.84a3.42,3.42,0,0,1-3,3.1l-.12,0H11.6l-.12,0a3.4,3.4,0,0,1-2.83-2.31,5.33,5.33,0,0,1-.2-.81V8.81l0-.13A3.44,3.44,0,0,1,11,5.8c.21-.06.44-.09.66-.14Z"/><path d="M35.41,22c0,.15,0,.29-.09.43A3.44,3.44,0,0,1,32,25.13H17.24a3.44,3.44,0,0,1-3.42-3.46q0-3,0-6a3.4,3.4,0,0,1,3-3.41,2.42,2.42,0,0,1,.47,0H31.87a3.43,3.43,0,0,1,3.36,2.36,6.63,6.63,0,0,1,.18.77Zm-10.8,1.81H32.1a2.11,2.11,0,0,0,2-2.1c0-2,0-4,0-6.05a2,2,0,0,0-.37-1.18,2.12,2.12,0,0,0-1.83-.93H17.22a2.12,2.12,0,0,0-2.09,2.09c0,2,0,4.06,0,6.09a1.85,1.85,0,0,0,.25.95,2.08,2.08,0,0,0,1.94,1.14Z"/><path d="M17.33,9.68h-2a.62.62,0,0,1-.59-.38.66.66,0,0,1,.59-.93h4A.65.65,0,0,1,20,9a.66.66,0,0,1-.67.65Z"/><path d="M17.67,27.67a1.21,1.21,0,1,1-1.21,1.22A1.21,1.21,0,0,1,17.67,27.67Z"/><path class="cls-2" d="M24.61,23.82H17.32a2.08,2.08,0,0,1-1.94-1.14,1.85,1.85,0,0,1-.25-.95c0-2,0-4.06,0-6.09a2.12,2.12,0,0,1,2.09-2.09H31.9a2.12,2.12,0,0,1,1.83.93,2,2,0,0,1,.37,1.18c0,2,0,4,0,6.05a2.11,2.11,0,0,1-2,2.1H24.61Zm-.28-8.89a3.67,3.67,0,0,0-1.24.39,1.89,1.89,0,0,0-1,1.39A1.67,1.67,0,0,0,23,18.63a4.19,4.19,0,0,0,.7.26c.21.06.42.1.64.15v1.57l-.41-.07A4.43,4.43,0,0,1,22.44,20l-.63,1.25c.26.12.5.25.76.36a5.61,5.61,0,0,0,1.61.36c.11,0,.16,0,.15.15a2.08,2.08,0,0,0,0,.25.65.65,0,0,0,1.3,0c0-.1,0-.2,0-.3s0-.14.13-.16a6.44,6.44,0,0,0,.88-.28,1.93,1.93,0,0,0,1.08-1,1.71,1.71,0,0,0-.92-2.33,3.2,3.2,0,0,0-.52-.18l-.64-.16V16.23a3.83,3.83,0,0,1,1.39.48l.62-1.23a5.32,5.32,0,0,0-2-.57v-.3a.65.65,0,0,0-1.3,0C24.32,14.71,24.33,14.82,24.33,14.93Z"/><path d="M24.33,14.93c0-.11,0-.22,0-.33a.65.65,0,0,1,1.3,0v.3a5.32,5.32,0,0,1,2,.57L27,16.71a3.83,3.83,0,0,0-1.39-.48v1.65l.64.16a3.2,3.2,0,0,1,.52.18,1.71,1.71,0,0,1,.92,2.33,1.93,1.93,0,0,1-1.08,1,6.44,6.44,0,0,1-.88.28c-.1,0-.14.06-.13.16s0,.2,0,.3a.65.65,0,0,1-1.3,0,2.08,2.08,0,0,1,0-.25c0-.11,0-.14-.15-.15a5.61,5.61,0,0,1-1.61-.36c-.26-.11-.5-.24-.76-.36L22.44,20a4.43,4.43,0,0,0,1.47.58l.41.07V19c-.22-.05-.43-.09-.64-.15a4.19,4.19,0,0,1-.7-.26,1.67,1.67,0,0,1-.92-1.92,1.89,1.89,0,0,1,1-1.39A3.67,3.67,0,0,1,24.33,14.93Zm0,1.35c-.47.08-.75.39-.71.76a.75.75,0,0,0,.71.57Zm1.32,3v1.25a.69.69,0,0,0,.65-.65A.66.66,0,0,0,25.64,19.29Z"/><path class="cls-2" d="M24.32,16.28v1.33a.75.75,0,0,1-.71-.57C23.57,16.67,23.85,16.36,24.32,16.28Z"/><path class="cls-2" d="M25.64,19.29a.66.66,0,0,1,.65.6.69.69,0,0,1-.65.65Z"/></svg>