<svg id="Layer_1" data-name="Layer 1" xmlns="http://www.w3.org/2000/svg" viewBox="0 0 20 20.01"><defs><style>.cls-1{fill:#2e8bc0;}</style></defs><title>F</title><path class="cls-1" d="M14.88,20H5.12l-.62-.1A5.45,5.45,0,0,1,.16,15.79a8.91,8.91,0,0,1-.16-.9V5.13a1.55,1.55,0,0,1,0-.21A9.2,9.2,0,0,1,.46,3.36,5.36,5.36,0,0,1,5.54,0c3,0,5.94,0,8.91,0A5.28,5.28,0,0,1,17.6,1,5.47,5.47,0,0,1,20,5.64c0,2.91,0,5.83,0,8.74a5.34,5.34,0,0,1-.1,1.13,5.43,5.43,0,0,1-4.11,4.33C15.49,19.92,15.18,20,14.88,20ZM10,1.78H5.66A3.79,3.79,0,0,0,4.32,2,3.74,3.74,0,0,0,1.77,5.64c0,2.91,0,5.83,0,8.74A4.07,4.07,0,0,0,2,15.68a3.68,3.68,0,0,0,3.63,2.55c2.92,0,5.83,0,8.75,0a4.1,4.1,0,0,0,1.3-.2,3.67,3.67,0,0,0,2.55-3.61c0-2.93,0-5.87,0-8.8a3.68,3.68,0,0,0-1.6-3.14,3.74,3.74,0,0,0-2.27-.69C12.9,1.79,11.46,1.78,10,1.78Z"/><path class="cls-1" d="M15.15,10A5.15,5.15,0,1,1,10,4.86,5.17,5.17,0,0,1,15.15,10ZM10,6.63A3.38,3.38,0,1,0,13.37,10,3.39,3.39,0,0,0,10,6.63Z"/><path class="cls-1" d="M15.38,6a1.3,1.3,0,1,1,1.29-1.3A1.3,1.3,0,0,1,15.38,6Z"/></svg>