<svg id="Layer_1" data-name="Layer 1" xmlns="http://www.w3.org/2000/svg" xmlns:xlink="http://www.w3.org/1999/xlink" viewBox="0 0 338.22 100"><defs><style>.cls-1{fill:#fff;}.cls-2{fill:url(#linear-gradient);}.cls-3{fill:#2e8bc0;}</style><linearGradient id="linear-gradient" x1="188.9" y1="35.71" x2="338.22" y2="35.71" gradientUnits="userSpaceOnUse"><stop offset="0" stop-color="#a3a3a3"/><stop offset="0.09" stop-color="#e3e3e3"/><stop offset="0.19" stop-color="#d1d1d1"/><stop offset="0.3" stop-color="#c3c3c3"/><stop offset="0.37" stop-color="#afafaf"/><stop offset="0.47" stop-color="#9e9e9e"/><stop offset="0.53" stop-color="#989898"/><stop offset="0.6" stop-color="#a0a0a0"/><stop offset="0.71" stop-color="#b6b6b6"/><stop offset="0.83" stop-color="#d5d5d5"/><stop offset="0.88" stop-color="#fefefe"/><stop offset="0.91" stop-color="#fafafa"/><stop offset="0.94" stop-color="#ededed"/><stop offset="0.96" stop-color="#d7d7d7"/><stop offset="0.99" stop-color="#b9b9b9"/><stop offset="1" stop-color="#b0b0b0"/></linearGradient></defs><title>Landing Servirpro</title><path class="cls-1" d="M54.25,4.32a56,56,0,0,0-3.78,4.87q-1.87,2.67-3.55,5.56a49.54,49.54,0,0,0-2.75,5.42,18.57,18.57,0,0,0-1.35,4.44,2.82,2.82,0,0,0,.6,2.68,2.62,2.62,0,0,1-2.07.45,5.89,5.89,0,0,1-2.47-1,7.27,7.27,0,0,1-2-2.09,4,4,0,0,1-.59-2.88,18.28,18.28,0,0,1,1.15-4.31q.91-2.35,1.79-4.76a30.47,30.47,0,0,0,1.32-4.59,6.39,6.39,0,0,0-.28-3.85c-.27-.6-1-.78-2.11-.52A16.72,16.72,0,0,0,34,5.43,44,44,0,0,0,29,8.67a49.17,49.17,0,0,0-5,4.13A33.54,33.54,0,0,0,20,17.21a9.31,9.31,0,0,0-1.87,4,2.86,2.86,0,0,0,1.48,2.89,24,24,0,0,0,4.46,2.22q2.74,1.08,6,2.22a34.29,34.29,0,0,1,6,2.78,15.11,15.11,0,0,1,4.5,4,8.75,8.75,0,0,1,1.51,5.95A7.32,7.32,0,0,1,40.67,45,22.64,22.64,0,0,1,37,49a41.5,41.5,0,0,1-5.33,3.89,51.12,51.12,0,0,1-6.46,3.37,50.29,50.29,0,0,1-7,2.47A35.41,35.41,0,0,1,11.23,60a22.77,22.77,0,0,1-4.86-.21A11.85,11.85,0,0,1,3,58.7,5.79,5.79,0,0,1,.72,56.47,6,6,0,0,1,0,53.52a11.75,11.75,0,0,1,.56-3.44,20.53,20.53,0,0,1,1.51-3.61,36.1,36.1,0,0,1,3.78-5.7,33.64,33.64,0,0,1,4.43-4.59,1.49,1.49,0,0,1,1-.24,2.08,2.08,0,0,1,1,.28,1.17,1.17,0,0,1,.52.59c.08.23,0,.42-.28.55A14.19,14.19,0,0,0,9.72,40a18.89,18.89,0,0,0-2.27,3.55,14.15,14.15,0,0,0-1.24,3.72,5.48,5.48,0,0,0,.28,3.19A3.64,3.64,0,0,0,8.8,52.41a10.21,10.21,0,0,0,5,0,33.6,33.6,0,0,0,6.61-2.22,38.85,38.85,0,0,0,6.3-3.51,24.58,24.58,0,0,0,4.7-4.13,6.44,6.44,0,0,0,1.83-4,4.42,4.42,0,0,0-1.55-3.41,15.52,15.52,0,0,0-3.91-2.47,42.93,42.93,0,0,0-5.18-1.94c-1.88-.58-3.69-1.21-5.41-1.88a23.08,23.08,0,0,1-4.58-2.33A6.19,6.19,0,0,1,10,23.19a8.08,8.08,0,0,1,.67-6,25.78,25.78,0,0,1,4.59-6.64A37.84,37.84,0,0,1,22.31,4.6,30.06,30.06,0,0,1,30.47.74,16.49,16.49,0,0,1,38.2.26a9,9,0,0,1,5.93,4.17c.61-1,1.2-2.44,2.29-2.92,1.95-.85,7.34-.4,8.77.85C55.87,3,54.25,4.32,54.25,4.32Z"/><path class="cls-1" d="M102.62,41.28a1.71,1.71,0,0,0,.37,1,2,2,0,0,0,.56.41,4.5,4.5,0,0,1,.49.24c.13.08.17.25.12.52-.11.43-.58.68-1.41.73A10,10,0,0,1,100,44,12.92,12.92,0,0,1,97.33,43c-.83-.41-1.3-.88-1.41-1.42a8.55,8.55,0,0,1-.32-2.94c.05-1,.05-2.12,0-3.2A54.79,54.79,0,0,0,88.25,45.6,49.87,49.87,0,0,0,83.4,58.33a1.25,1.25,0,0,1-1.33.92,5.66,5.66,0,0,1-2.31-.44,7,7,0,0,1-2.1-1.29,1.82,1.82,0,0,1-.72-1.7A85.75,85.75,0,0,1,79,46.69q1.34-4.75,3.11-9.41t3.79-8.84c1.35-2.8,2.67-5.31,4-7.51A1.69,1.69,0,0,1,91,20a3,3,0,0,1,1.54.08,5.78,5.78,0,0,1,2.62,1.57,1.87,1.87,0,0,1,.2,2.14q-1,2.27-2.26,4.73c-.8,1.64-1.64,3.51-2.5,5.61C91.4,33,92.12,32,92.77,31c.59-.81,1.12-1.58,1.58-2.34s.74-1.21.84-1.37c.49-.76.89-1.17,1.21-1.25a2.88,2.88,0,0,1,1.62.36q2.27.88,3.39,1.29A2.87,2.87,0,0,1,103,28.76a2.79,2.79,0,0,1,.24,1.86c-.11.81-.24,2.05-.4,3.71A30.22,30.22,0,0,0,102.62,41.28Z"/><path class="cls-1" d="M179.6,41.56a1.62,1.62,0,0,0,.34,1,1.83,1.83,0,0,0,.55.42,5.15,5.15,0,0,1,.48.25c.13.09.17.26.11.53-.12.43-.59.66-1.43.7a9.79,9.79,0,0,1-2.7-.31,12.55,12.55,0,0,1-2.68-1q-1.25-.63-1.38-1.44a8.71,8.71,0,0,1-.26-3,30.69,30.69,0,0,0,.07-3.19,55.24,55.24,0,0,0-7.58,10A49.89,49.89,0,0,0,160,58.16a1.27,1.27,0,0,1-1.35.9,5.73,5.73,0,0,1-2.3-.5,6.9,6.9,0,0,1-2.07-1.34,1.81,1.81,0,0,1-.68-1.71,87.1,87.1,0,0,1,2.26-9.08q1.44-4.74,3.33-9.34t4-8.75q2.12-4.15,4.13-7.43a1.71,1.71,0,0,1,1.15-.86,3,3,0,0,1,1.53.12,5.87,5.87,0,0,1,2.59,1.63,1.87,1.87,0,0,1,.15,2.15q-1.09,2.24-2.36,4.67c-.85,1.62-1.73,3.48-2.63,5.55Q169,32.51,170,31.08c.61-.8,1.15-1.57,1.63-2.31s.76-1.2.88-1.36c.5-.74.91-1.15,1.23-1.22a3,3,0,0,1,1.61.4c1.49.63,2.62,1.08,3.36,1.37a2.87,2.87,0,0,1,1.51,1.09,2.76,2.76,0,0,1,.2,1.86c-.12.8-.28,2-.48,3.7A30,30,0,0,0,179.6,41.56Z"/><path class="cls-1" d="M128.13,23.6c1-2,5.93-4,7.9-2,1.24,1.23-6.44,16.65-7.57,19.05a79,79,0,0,1-3.76,7A68.06,68.06,0,0,1,120.5,54a19.66,19.66,0,0,1-3.92,4.12,4.74,4.74,0,0,1-2.58.85,10.68,10.68,0,0,1-3.19-.24A7.54,7.54,0,0,1,108,57.44a3.43,3.43,0,0,1-1.45-2.18,16.26,16.26,0,0,1-.08-3.72q.17-2.26.6-4.89t1.13-5.29q.69-2.65,1.38-5a40.45,40.45,0,0,1,1.33-3.87,6.93,6.93,0,0,1,1.13-2.06,2,2,0,0,1,1.7-.45,7,7,0,0,1,2.18.61,6.55,6.55,0,0,1,1.78,1.17c.48.46.64.88.48,1.25A30.33,30.33,0,0,0,116.75,37q-.9,2.79-1.74,5.94T113.56,49a18.09,18.09,0,0,0-.53,4.28c.27-.06.92-.7,1.94-1.94a51.59,51.59,0,0,0,3.39-4.73A71.58,71.58,0,0,0,122,40.15a35.77,35.77,0,0,0,2.74-7S127.14,25.58,128.13,23.6Z"/><path class="cls-1" d="M84.5,40.43q-5,4.6-10.25,8.83A66.61,66.61,0,0,1,63,56.59a12.18,12.18,0,0,1-12.69-.37,13.57,13.57,0,0,1-3.85-3.67,7.62,7.62,0,0,1-1.22-5A33.89,33.89,0,0,1,48.55,34.7a27.29,27.29,0,0,1,8.69-10.06,9,9,0,0,1,4.47-1.92,10.52,10.52,0,0,1,4.37.46,15.1,15.1,0,0,1,4.08,2.07,40.41,40.41,0,0,1,3.62,2.87q3.85,3.48.75,7.61a22.19,22.19,0,0,1-10.8,7.89,7.06,7.06,0,0,1-4.89.14c-1.56-.53-3.07-1.08-4.51-1.64a20.24,20.24,0,0,0-2,4.42,15.64,15.64,0,0,0-.66,4.6,4,4,0,0,0,.8,2.91c.53.51,1.51.6,3,.29a33.48,33.48,0,0,0,7.33-2.92,72.42,72.42,0,0,0,6.67-4.08q3.2-2.22,6.2-4.66c2-1.62,4-3.16,6.11-4.6Zm-17-12.12A10.93,10.93,0,0,0,64.57,30a35.82,35.82,0,0,0-3.19,2.77,41.33,41.33,0,0,0-2.91,3.1,16.69,16.69,0,0,0-2,2.77A6.55,6.55,0,0,0,60,38a14,14,0,0,0,3.43-2.26,13.3,13.3,0,0,0,2.73-3.34A9.71,9.71,0,0,0,67.49,28.31Z"/><path class="cls-1" d="M163.68,36.57c-1.44,1.82-6.9,7.6-8.46,9.45s-3.09,3.57-4.56,5.17-2.82,3-4,4.23-2.18,2.14-2.87,2.77a6,6,0,0,1-2.58,1.41,7,7,0,0,1-2.91.14,9.8,9.8,0,0,1-2.92-1,8.48,8.48,0,0,1-2.58-2.07,5.17,5.17,0,0,1-1-1.83,12.8,12.8,0,0,1-.57-2.21,13.75,13.75,0,0,1,.47-5.59,37.48,37.48,0,0,1,2.3-6.25,66.42,66.42,0,0,1,3.15-5.92,36.9,36.9,0,0,1,3.1-4.51,5,5,0,0,1,4.23-1.69A5.77,5.77,0,0,1,148.64,31a2.65,2.65,0,0,1,.28,2.26,36.46,36.46,0,0,1-2.16,5.26c-.88,1.75-1.78,3.51-2.73,5.26s-1.82,3.51-2.62,5.26a24.85,24.85,0,0,0-1.79,5.27,21.39,21.39,0,0,0,4.74-2.82,41.72,41.72,0,0,0,4.47-4q2.16-2.26,4.23-4.75c1.38-1.66,6.67-7.22,8-8.79ZM145.35,22.2a22.2,22.2,0,0,1,.28-3.29,12.92,12.92,0,0,1,1-3.43,5.67,5.67,0,0,1,1.92-2.4,3.18,3.18,0,0,1,3.11-.09,15.93,15.93,0,0,1,2.81,1.45A3.67,3.67,0,0,1,155.83,16a2.75,2.75,0,0,1,0,1.88,13.67,13.67,0,0,1-1.17,2.58c-.32.5-.55.89-.71,1.18a8.22,8.22,0,0,0-.42.84,7.72,7.72,0,0,1-.47.89q-.28.48-.66,1.23c-.51,1-.94,1.56-1.32,1.69s-1.15-.1-2.34-.66a22.33,22.33,0,0,1-2.31-1A2.4,2.4,0,0,1,145.35,22.2Z"/><path class="cls-2" d="M210.64,10.18H188.9V61.25H203V47.14h7.64c10.85,0,18.92-7.8,18.92-18.51S221.49,10.18,210.64,10.18ZM209,34.86H203V22.47H209a5.86,5.86,0,0,1,6.14,6.19A5.87,5.87,0,0,1,209,34.86Zm68.12-6.61c0-10.67-8-18.07-19-18.07H236V61.25H250V45.62h5.1l8.28,15.63h15.71L269,42.67A16.35,16.35,0,0,0,277.07,28.25Zm-20.62,5.52H250V22.68h6.43c3.93,0,6.19,2.34,6.19,5.53S260.38,33.77,256.45,33.77Zm81.68,5.39c-1.58,13.82-12.7,23.38-27.84,23.38h0c-15.18,0-26.33-9.59-27.93-23.37,5.61,0,16.22,0,17.37,0a2.52,2.52,0,0,0,2.46-1.67l2-5.15,9.41,24.44,2.79-7.17,4-10.46C324,39.17,334.9,39.17,338.13,39.16Zm-40.76-6h-15.1c1.23-14.24,12.53-24.23,28-24.23s26.72,10,27.93,24.23c-3.74,0-18.66,0-20.27,0a2.47,2.47,0,0,0-2.36,1.62c-.66,1.74-1.33,3.47-2,5.21l-9.41-24.46Z"/><polygon class="cls-3" points="74.62 77.33 81.27 77.33 81.27 94.3 84.63 94.3 84.63 77.33 91.27 77.33 91.27 74.06 74.62 74.06 74.62 77.33"/><path class="cls-3" d="M100.69,78.49A7.44,7.44,0,0,0,95,80.84,8.09,8.09,0,0,0,93,86.51a8,8,0,0,0,2.15,5.68,7.58,7.58,0,0,0,5.73,2.34,7.43,7.43,0,0,0,4.54-1.32A7.53,7.53,0,0,0,108,89.77l.31-.81h-3.59l-.17.32a3.77,3.77,0,0,1-3.64,2.1,4.27,4.27,0,0,1-3.1-1.16A4.43,4.43,0,0,1,96.48,88h11.94V86.51a8.09,8.09,0,0,0-2.06-5.67A7.42,7.42,0,0,0,100.69,78.49Zm0,3.15a4.16,4.16,0,0,1,2.93,1.08,4.29,4.29,0,0,1,1.22,2H96.53a4.37,4.37,0,0,1,1.22-2A4.2,4.2,0,0,1,100.69,81.64Z"/><path class="cls-3" d="M133.08,79a5.63,5.63,0,0,0-2.25-.46,6,6,0,0,0-2.1.35,6.31,6.31,0,0,0-2.82,2,5.82,5.82,0,0,0-1.61-1.52,5.52,5.52,0,0,0-3-.85,5.44,5.44,0,0,0-3.78,1.33v-1.1h-3.35V94.3h3.35V85.1a3.35,3.35,0,0,1,1-2.56,3.18,3.18,0,0,1,2.32-.9,2.74,2.74,0,0,1,2.11.89,3.67,3.67,0,0,1,.86,2.54V94.3h3.35V85.1a3.35,3.35,0,0,1,1-2.56,3.18,3.18,0,0,1,2.32-.9,2.74,2.74,0,0,1,2.11.89,3.67,3.67,0,0,1,.86,2.54V94.3h3.35V85A6.67,6.67,0,0,0,135,80.28,5.94,5.94,0,0,0,133.08,79Z"/><path class="cls-3" d="M151.39,78.49A6.68,6.68,0,0,0,146.84,80V78.72h-3.36V100h3.36V93a6.37,6.37,0,0,0,4.4,1.56,7.22,7.22,0,0,0,5.63-2.35,8.77,8.77,0,0,0,0-11.34A7,7,0,0,0,151.39,78.49Zm4.2,8a5,5,0,0,1-1.2,3.46,4.16,4.16,0,0,1-3.29,1.41,4,4,0,0,1-3.23-1.4,5.81,5.81,0,0,1,0-6.94,4,4,0,0,1,3.23-1.4,4.16,4.16,0,0,1,3.29,1.41A5,5,0,0,1,155.59,86.51Z"/><path class="cls-3" d="M171.73,78.49a7.46,7.46,0,0,0-5.68,2.35,8.83,8.83,0,0,0,0,11.34,8,8,0,0,0,11.36,0,8.85,8.85,0,0,0,0-11.34A7.42,7.42,0,0,0,171.73,78.49ZM175,90a4.41,4.41,0,0,1-6.45,0,5.79,5.79,0,0,1,0-6.94,3.93,3.93,0,0,1,3.22-1.4A4,4,0,0,1,175,83,5.79,5.79,0,0,1,175,90Z"/><path class="cls-3" d="M190.93,79a6.27,6.27,0,0,0-2.14,1.56V78.72h-3.36V94.3h3.36V87.37A6.15,6.15,0,0,1,190,83.48a4,4,0,0,1,3.33-1.64h.86V78.49h-.75A5.83,5.83,0,0,0,190.93,79Z"/><path class="cls-3" d="M210.52,80.05a6.39,6.39,0,0,0-4.41-1.56,7.28,7.28,0,0,0-5.65,2.36,8.85,8.85,0,0,0,0,11.33A7.14,7.14,0,0,0,206,94.53,6.68,6.68,0,0,0,210.52,93V94.3h3.36V78.72h-3.36Zm.12,6.46A5.13,5.13,0,0,1,209.48,90a4,4,0,0,1-3.22,1.4A4.15,4.15,0,0,1,203,90a5.55,5.55,0,0,1,0-6.92,4.15,4.15,0,0,1,3.29-1.41,4,4,0,0,1,3.22,1.4A5.13,5.13,0,0,1,210.64,86.51Z"/><rect class="cls-3" x="220.74" y="72.96" width="3.36" height="21.34"/><path class="cls-3" d="M237.79,78.49a7.42,7.42,0,0,0-5.67,2.35,8.09,8.09,0,0,0-2.06,5.67,8,8,0,0,0,2.15,5.68,7.58,7.58,0,0,0,5.73,2.34,7.43,7.43,0,0,0,4.54-1.32,7.6,7.6,0,0,0,2.58-3.44l.31-.81h-3.59l-.17.32a3.77,3.77,0,0,1-3.64,2.1,4.26,4.26,0,0,1-3.1-1.16A4.43,4.43,0,0,1,233.59,88h11.94V86.51a8.09,8.09,0,0,0-2.06-5.67A7.44,7.44,0,0,0,237.79,78.49Zm0,3.15a4.16,4.16,0,0,1,2.93,1.08,4.31,4.31,0,0,1,1.23,2h-8.31a4.29,4.29,0,0,1,1.22-2A4.18,4.18,0,0,1,237.79,81.64Z"/><path class="cls-3" d="M262.74,87.09a5.43,5.43,0,0,0-2-1.38,12.85,12.85,0,0,0-2.44-.72c-.81-.16-1.58-.34-2.27-.53a5.62,5.62,0,0,1-1.61-.66A.85.85,0,0,1,254,83c0-.4,0-1.47,2.72-1.47,2.51,0,2.92,1,3,1.72l.07.52h3.38l-.07-.67a4.77,4.77,0,0,0-1.69-3.21,6.93,6.93,0,0,0-4.55-1.4,7.48,7.48,0,0,0-4.58,1.2,4.16,4.16,0,0,0-1.66,3.51,3.46,3.46,0,0,0,.87,2.48,5.48,5.48,0,0,0,2,1.33,13.27,13.27,0,0,0,2.43.71c.81.16,1.57.34,2.26.53a5.69,5.69,0,0,1,1.6.7.93.93,0,0,1,.44.87,1.32,1.32,0,0,1-1,1.31,4.76,4.76,0,0,1-1.11.28,6.13,6.13,0,0,1-2.57-.12,2.38,2.38,0,0,1-1.84-2.16l-.06-.54h-3.42l0,.63A5,5,0,0,0,252.17,93a7.42,7.42,0,0,0,5,1.58,8,8,0,0,0,4.63-1.21,4.27,4.27,0,0,0,1.84-3.7A3.62,3.62,0,0,0,262.74,87.09Z"/><rect class="cls-3" x="9.97" y="74.06" width="55.72" height="3.27"/><rect class="cls-3" x="272.53" y="74.06" width="55.72" height="3.27"/></svg>